<?xml version="1.0" encoding="UTF-8"?>
<svg id="Capa_1" data-name="Capa 1" xmlns="http://www.w3.org/2000/svg" viewBox="0 0 1041.81 450.82">
  <defs>
    <style>
      .cls-1 {
        fill: #248b43;
      }

      .cls-2 {
        fill: #168e3a;
      }

      .cls-3 {
        fill: #54ad71;
      }

      .cls-4 {
        fill: #148d38;
      }

      .cls-5 {
        fill: #118d37;
      }

      .cls-6 {
        fill: #158e3a;
      }

      .cls-7 {
        fill: #de0b21;
      }

      .cls-8 {
        fill: #de0b22;
      }

      .cls-9 {
        fill: #ef9d12;
      }

      .cls-10 {
        fill: #dd0a21;
      }

      .cls-11 {
        fill: #f09c0f;
      }

      .cls-12 {
        fill: #db0e23;
      }

      .cls-13 {
        fill: #158d39;
      }

      .cls-14 {
        fill: #da192b;
      }

      .cls-15 {
        fill: #dd0c22;
      }

      .cls-16 {
        fill: #de0e24;
      }

      .cls-17 {
        fill: #118d36;
      }

      .cls-18 {
        fill: #de0e23;
      }

      .cls-19 {
        fill: #ef9c10;
      }

      .cls-20 {
        fill: #cd7880;
      }

      .cls-21 {
        fill: #dd0f25;
      }

      .cls-22 {
        fill: #d14454;
      }

      .cls-23 {
        fill: #148e38;
      }

      .cls-24 {
        fill: #ee9f1e;
      }

      .cls-25 {
        fill: #dd0d23;
      }
    </style>
  </defs>
  <path class="cls-11" d="M479.51,180.43c-6.15,17.74-12.41,35.45-18.38,53.25-1.53,4.55-2.73,8.49-8.88,7.38-6.43-1.16-14.5,3.24-17.58-7.47-5.2-18.07-11.46-35.84-17.27-53.73-.71,.08-1.43,.16-2.14,.24v60.41h-20.09c0-9.51,0-18.39,0-27.28,0-19.01,.12-38.03-.11-57.04-.08-6.3,1.85-9.69,8.67-8.83,1.1,.14,2.24,.02,3.36,.02,19.08,.07,18.78,.15,23.86,18.33,4.33,15.51,9.43,30.8,14.29,46.15,.36,1.14,1.61,2,3.66,4.42,3.31-9.14,6.26-16.94,8.97-24.81,4.52-13.11,8.84-26.3,13.4-39.4,.57-1.64,2-4.18,3.11-4.23,8.09-.31,16.2-.29,24.28,.2,1.1,.07,2.86,3.31,2.87,5.09,.18,28.77,.13,57.54,.13,87.1h-19.57v-59.52c-.86-.09-1.71-.19-2.57-.28Z"/>
  <path class="cls-25" d="M245.98,351.78c49-7.11,95.18-51.49,97.84-95.07-43.51-3.49-87.05-6.98-130.59-10.47,0-.93,0-1.85-.01-2.78,53.62-4.42,107.23-8.84,163.62-13.48-4.7,16.23-8.06,31.06-13.26,45.22-12.3,33.48-31.77,61.51-64.92,77.64-27.69,13.48-56.77,13.27-86.19,7.11-4.01-.84-7.86-2.39-11.79-3.62,3.97-.47,7.92-1,11.9-1.39,11.13-1.09,22.27-2.11,33.41-3.16Z"/>
  <path class="cls-15" d="M925.76,252.14v17.91c-6.18,0-11.97-.05-17.76,.01-12.59,.13-25.19,.21-37.78,.52-5.99,.15-9.29,3.71-9.66,9.52-.38,6.02,2.14,10.4,8.53,11.49,3.57,.61,7.21,.97,10.83,1.07,7.27,.21,14.57-.06,21.83,.27,24.71,1.12,37.53,22.66,26.85,45.09-3.86,8.11-10.24,13.94-19.33,14.16-22.32,.52-44.66,.17-67.51,.17v-17.35c9.37,0,18.76,.04,28.15-.01,8.4-.05,16.8-.09,25.19-.32,7.05-.19,11.88-3.39,12.45-10.87,.53-6.95-4.63-12.27-12.7-12.66-9.5-.46-19.05,.12-28.54-.41-25.41-1.42-37.78-24.19-25.24-45.95,5.19-9.01,13.64-12.33,23.22-12.52,20.14-.38,40.29-.12,61.46-.12Z"/>
  <path class="cls-8" d="M776.15,251.13c31.11-.15,46.75,13.54,49.64,44.49,.77,8.23,.28,16.87-1.37,24.96-3.41,16.73-13.47,27.6-30.72,31.63-12.97,3.03-25.61,2.28-38.09-1.57-13.15-4.06-22.04-12.71-26.19-26.06-4.36-14.02-4.41-28.22-.75-42.21,5.58-21.33,20.96-31.11,47.48-31.24Zm-26.07,51.14c-.23,.05-.47,.09-.7,.14,1.12,6.3,1.63,12.77,3.49,18.85,3.25,10.66,10.95,15.43,23.15,15.48,12.39,.04,20.13-4.45,23.54-14.95,4.15-12.8,4.68-26.11-.34-38.62-2.05-5.1-7.1-10.57-12.12-12.63-18.9-7.75-34.46,2.29-36.55,22.52-.32,3.05-.32,6.14-.46,9.22Z"/>
  <path class="cls-8" d="M941.77,301.66c.31-3.97,.36-8.75,1.1-13.43,3.27-20.88,15.28-33.29,36.16-35.96,49.19-6.3,67.4,18.79,61.82,64.06-2.67,21.66-14.06,32.46-35.53,36.67-13.85,2.72-27.38,.96-40.19-4.86-14.47-6.58-20.37-19.19-22.62-33.98-.59-3.85-.48-7.8-.74-12.5Zm24.27-.06c-.31,.03-.63,.06-.94,.09,.86,5.77,1.17,11.69,2.68,17.29,3.52,13.01,11.4,18.2,25.63,17.73,12.67-.42,20.76-6.43,22.85-19.1,1.43-8.69,1.64-17.87,.63-26.62-1.86-16.09-11.2-23.39-26.69-22.58-14.62,.76-22.92,9.25-24.14,24.81-.22,2.78-.03,5.59-.03,8.39Z"/>
  <path class="cls-7" d="M178.97,345.51c-3.61-.77-6.48-.97-9.03-1.99-32.07-12.85-47.01-38.29-47.79-71.12-.36-14.89-4.76-23.21-17.52-29.79-27.04-13.94-53.49-29-80.3-43.4-3.64-1.96-8.09-2.37-11.81-4.22-3.8-1.89-7.15-4.66-12.52-8.27,13.84-6.52,25.1-4.63,36.09-1.69,34.35,9.18,65.24,26.13,95.97,43.36,3.66,2.05,7.3,4.13,10.89,6.3,12.42,7.51,12.26,5.77,7.88,20.91-8.17,28.27-3.16,53.53,15.96,75.95,3.68,4.31,7.45,8.55,12.17,13.96Z"/>
  <path class="cls-10" d="M456.63,252.27v18.34c-13.04,0-25.58-.57-38.05,.16-12.31,.72-18.4,8.39-17.96,20.66,.02,.49,.44,.98,1.1,2.36h54.96v18.15h-55.35c-.89,13.81,5.93,21.8,19.55,22.54,11.67,.63,23.4,.13,35.72,.13v20c-18.34-1.42-36.4-1.93-54.11-4.69-6.07-.95-12.41-6.59-16.63-11.73-15.11-18.35-13.6-55.86,2.07-73.61,6.41-7.26,14.23-11.97,23.96-12.22,14.53-.37,29.07-.09,44.75-.09Z"/>
  <path class="cls-19" d="M518.88,181.86c0-9.22,.21-18.46-.09-27.67-.16-4.97,1.3-7.49,6.59-6.85,1.1,.13,2.26,.16,3.35,0,7.88-1.24,10.89,1.59,10.5,9.97-.67,14.5,.35,29.09-.32,43.59-.98,21.46,13.43,29.07,31.44,23.31,5.28-1.69,9.06-4.27,9.19-10.25,.39-18.12,.96-36.23,1-54.35,.03-11.74,.31-12.02,11.98-12.33,7.74-.21,9.16,2.73,8.8,10.06-.69,13.91,.37,27.9,.1,41.84-.14,7.22-.84,14.59-2.61,21.56-1.99,7.81-7.53,13.26-15.07,16.6-14,6.21-28.59,5.66-42.79,2.23-13.45-3.25-21.23-14.92-21.88-30.04-.4-9.21-.07-18.45-.07-27.67-.04,0-.08,0-.12,0Z"/>
  <path class="cls-21" d="M647.95,264.7c6.07,4.67,7.43,11.47,3.64,17.05-6.32,9.3-13.67,18.16-21.87,25.84-5.72,5.36-12.63,2.36-12.9-5.58-.24-7.15,2.22-14.54,4.47-21.5,.59-1.83,4.82-2.49,7.39-3.69,.4,2.59,.91,5.16,1.16,7.77,.13,1.3-.2,2.64-.32,3.96,.8,.49,1.6,.99,2.4,1.48,2.63-4.24,6.02-8.24,7.53-12.85,.62-1.9-2.35-6.89-4.43-7.39-4.73-1.15-11.22-2.34-14.7-.04-10.78,7.1-17.16,33.36-12.37,45.38,6.35,15.93,20.98,23.06,39.17,18.27,9.9-2.61,19.46-6.49,29.7-9.98-.07,1.31,.28,2.82-.28,3.82-9.07,16.31-22.79,24.49-41.69,24.6-18.45,.11-32.86-7.28-39.22-24.34-3.49-9.37-3.73-21.04-1.89-31.03,2.02-10.96,7.8-21.32,12.54-31.67,3.28-7.17,9.38-10.91,17.53-10.72,8.04,3.54,16.09,7.09,24.14,10.63Z"/>
  <path class="cls-17" d="M474.84,414.96c-3.06,9.13-5.93,18.33-9.31,27.33-.92,2.45-3.36,6.02-5.18,6.07-2.74,.07-6.49-1.83-8.12-4.11-2.32-3.23-3.22-7.53-4.53-11.43-1.62-4.79-3.03-9.66-4.54-14.49-1.08,.12-2.16,.23-3.25,.35-.45,6.95-.94,13.91-1.33,20.86-.23,4.15,.49,9.46-5.73,8.97-5.61-.44-6.33-4.85-5.95-9.98,1.35-18.33,2.3-36.68,3.38-54.78,14.92-2.49,17-1.41,21.5,12.29,2.3,6.99,3.76,14.25,5.6,21.39,.96,.05,1.91,.09,2.87,.14,2.47-8.41,5.09-16.78,7.36-25.24,2.25-8.37,14.17-13.11,20.71-7.84,1.05,.85,1.49,2.93,1.55,4.46,.63,17.33,1.42,34.66,1.34,51.99-.01,2.6-4.24,5.18-6.52,7.77-2.02-2.45-5.54-4.77-5.77-7.37-.74-8.51-.28-17.12-.28-25.69-1.27-.23-2.54-.47-3.81-.7Z"/>
  <path class="cls-25" d="M472.75,252.25h21.94c0,12.38-.03,24.3,.01,36.22,.04,10.06,0,20.12,.3,30.17,.32,10.61,4.73,15.39,15.31,15.87,10.28,.46,20.6,.1,31.5,.1v19.68c-15.48-.93-30.8-1.08-45.9-3-12.09-1.53-20.63-12.58-22.28-26.2-.64-5.25-.82-10.59-.85-15.89-.1-18.68-.04-37.36-.04-56.95Z"/>
  <path class="cls-9" d="M649.85,230.55c-1.87-.28-3.73-.56-6.33-.95,0-2.83-.34-5.63,.06-8.31,2.37-15.96-3.36-29.05-13-41.46-7.55-9.72-13.66-20.55-21.39-32.4,7.59,0,13.46-.67,19.07,.27,2.93,.49,6.2,3.28,7.91,5.93,5.99,9.26,11.36,18.91,17.84,29.88,6.38-9.9,12.65-18.22,17.35-27.36,3.84-7.45,8.92-9.85,16.73-8.82,3.48,.46,7.06,.08,12.4,.08-7.78,11.7-14.54,21.99-21.45,32.18-3.57,5.27-8.72,9.86-10.85,15.62-3.18,8.57-4.31,17.9-6.69,28.56-.33,.23-2.69,1.87-5.05,3.51,0,0,.06-.11,.06-.11-2.26,1.17-4.52,2.34-6.77,3.51l.11-.12Z"/>
  <path class="cls-14" d="M332.81,0c12.35,9.06,15,21.65,5.33,36.46-7.72,11.82-17.49,22.42-27.13,32.85-12.88,13.93-26.71,26.96-39.69,40.8-3.93,4.19-6.87,9.53-9.38,14.76-4.85,10.13-4.18,20.08,3.02,29.09,4.36,5.46,9.05,10.65,13.36,16.14,14.26,18.18,11.62,34.18-9.5,48.72,2.37-4.81,3.84-8.05,5.53-11.18,6.29-11.63,5.39-22.41-3.35-32.54-5.1-5.91-10.34-11.77-14.77-18.17-10.57-15.24-8.4-30.89,2.53-44.24,13.37-16.34,28.66-31.11,42.98-46.68,8.68-9.44,17.64-18.7,25.52-28.78,7.94-10.16,10.94-21.74,4.78-34.26-.27-.55,.38-1.55,.77-2.98Z"/>
  <path class="cls-16" d="M710.79,353.48h-20.78v-101.7h20.78v101.7Z"/>
  <path class="cls-24" d="M254.07,214.41c9.51-16.41,3.35-29.63-7.01-42.8-6.79-8.63-13.15-18.11-17.32-28.19-7.66-18.53,1.52-34.07,12.45-48.18,13.24-17.09,27.6-33.31,40.89-50.36,7.73-9.91,12.11-21.2,8.03-34.21-.39-1.24,.03-2.77,.24-4.15,.15-.98,.59-1.91,3.12-3.63,1.88,3.93,4.63,7.68,5.47,11.82,2.66,13.12-1.33,24.8-9.58,35.04-13.38,16.61-27.41,32.72-40.23,49.75-5.72,7.6-10.47,16.49-13.32,25.53-3.41,10.83,2.12,20.53,8.47,29.31,5.53,7.64,11.57,14.97,16.47,22.99,6.33,10.37,7.41,21.55,1.1,32.46-1.45,2.51-4.47,4.11-6.77,6.13-.66-.51-1.32-1.01-1.99-1.52Z"/>
  <path class="cls-18" d="M576.48,353.38h-20.61v-101.52h20.61v101.52Z"/>
  <path class="cls-23" d="M698.84,384.23c10.36,.52,19.26,.77,28.12,1.49,5.58,.45,11.72,9.44,10.65,15.59-1.48,8.52-1.74,16.28,.86,25.23,3.29,11.32-2.19,22.79-17.94,22.47-7.24-.15-14.48-.03-21.69-.03v-64.75Zm9.9,42.69c1.95,6.67,1.41,12.59,8.6,12.71,5.65,.09,8.45-3.69,8.7-9.12,.3-6.76-3.93-9.92-9.87-9.43-2.62,.22-4.96,3.79-7.43,5.84Zm-1.92-25.41c4.4,4.62,7.55,9.76,9.25,9.32,3.51-.91,8.04-4.31,8.91-7.56,1.44-5.39-2.71-9.15-8.31-8.49-2.74,.32-5.15,3.39-9.85,6.73Z"/>
  <path class="cls-6" d="M554.27,382.76c9.16,.56,16.94,.89,24.7,1.54,7.01,.58,13.99,9.75,12.15,16.61-2.76,10.29-5.37,20.2,.62,30.44,1.48,2.53,1.25,6.85,.25,9.82-.94,2.81-3.93,4.94-6.02,7.37-2.39-2.3-5.76-4.18-6.93-6.98-1.79-4.27-1.64-9.31-3.17-13.74-.63-1.83-3.37-3.78-5.33-4-1.26-.14-3.64,2.57-4.14,4.38-.94,3.44-1.56,7.24-1.11,10.74,.94,7.36-4.46,8.91-9.11,8.94-1.75,0-5.14-6.03-5.05-9.23,.57-18.35,1.96-36.68,3.13-55.89Zm26.78,19.54c-4.66-3.63-7.22-6.58-10.39-7.58-1.15-.36-5.73,4.43-5.33,6.03,.91,3.65,3.92,6.79,6.07,10.13,2.54-2.26,5.08-4.52,9.65-8.58Z"/>
  <path class="cls-4" d="M603,383.38c6.63-1.15,8.36,1.44,8.78,6.69,1.09,13.64,2.42,27.29,4.38,40.83,.39,2.73,3.96,5.01,6.07,7.49,1.81-2.44,4.91-4.72,5.22-7.34,1.56-13.03,2.62-26.14,3.34-39.25,.29-5.32,2.06-9.68,7.41-8.18,2.9,.81,6.41,6.08,6.44,9.37,.12,12.56-1.9,25.15-1.5,37.68,.31,9.58-5.57,13.95-12.07,17.27-14.56,7.41-31.33-3.89-30.52-20,.74-14.75,1.62-29.49,2.45-44.57Z"/>
  <path class="cls-13" d="M376.19,414.23c.28-4.17,.55-8.35,.83-12.52,.99-15.19,9.96-21.68,24.5-17.74,12.92,3.5,18.16,11.3,17.01,24.82-.64,7.5-.92,15.03-1.35,22.54-.71,12.37-6.97,18.06-19.16,17.4-17.4-.95-23.44-7.77-22.42-25.32,.18-3.06,.36-6.13,.54-9.19,.02,0,.03,0,.05,0Zm12.07,2.3c.33,.02,.66,.03,.99,.05,0,5.29-.89,10.79,.34,15.77,.7,2.85,4.6,6.22,7.53,6.75,1.96,.35,6.68-3.78,6.83-6.11,.69-11.33,.67-22.75-.1-34.08-.16-2.4-4.28-5.88-6.98-6.32-1.92-.31-5.94,3.3-6.56,5.78-1.47,5.86-1.46,12.08-2.05,18.16Z"/>
  <path class="cls-13" d="M843.16,426.75c.56-8.35,1.2-16.7,1.65-25.05,.85-15.57,9.96-22.14,25.01-17.92,12.18,3.42,17.43,10.88,16.57,23.47-.45,6.68-1.51,13.41-1.1,20.05,1,16.03-9.18,23.79-24.13,20.74-11.21-2.28-18.62-9.85-18.01-21.3Zm19.44-38.26c-1.97,5.26-5.04,10.21-5.51,15.41-.8,8.85,0,17.84,.2,26.77,.1,4.7,1.82,8.26,7.16,8.55,6.02,.32,7.74-3.9,8.04-8.64,.48-7.52,.49-15.07,.56-22.61,.07-7.54-1.06-14.61-10.46-19.46Z"/>
  <path class="cls-5" d="M797.9,444.03c-.79,1.06-1.75,3.65-3.35,4.15-2.01,.62-4.92,.12-6.78-1-2.3-1.39-3.83-4.01-5.86-5.93-8.18-7.76-14.4-7.35-20.84,1.67-2.54,3.56-4.86,7.77-9.79,5.48-5.17-2.4-2.89-6.89-1.62-10.94,5.02-15.98,9.73-32.07,14.99-47.97,.71-2.15,4.1-5.03,5.96-4.83,3.82,.41,9.24-2.23,11.12,4.37,4.9,17.19,10.13,34.28,15.23,51.41,.24,.8,.42,1.62,.92,3.6Zm-23.42-37.83c-1.56-.12-3.12-.24-4.67-.36-.9,4.94-2.07,9.85-2.49,14.82-.1,1.2,2.42,3.77,3.5,3.65,1.77-.2,4.73-2.05,4.76-3.28,.14-4.93-.65-9.89-1.1-14.84Z"/>
  <path class="cls-23" d="M503.86,382.94c9.47,.62,18.73-.58,26.41,2.34,5.22,1.98,10.74,9.32,11.7,15.01,1.74,10.33-5.01,19.33-15.51,21.43-9.56,1.91-11.27,7.67-11.87,15.37-.19,2.51,.45,5.85-.91,7.31-1.98,2.13-5.79,4.42-8.13,3.84-2.32-.57-5.47-4.68-5.37-7.11,.82-19.19,2.34-38.34,3.68-58.2Zm7.94,18.8c4.06,4.3,6.87,7.28,9.69,10.26,2.51-2.88,6.64-5.49,7.17-8.7,.94-5.68-3.79-8.64-8.99-8.41-2.12,.09-4.1,3.43-7.86,6.85Z"/>
  <path class="cls-2" d="M344.62,394.41c-1.47,4.79-3.96,9.53-4.2,14.38-.39,8.04,.38,16.18,1.28,24.2,.25,2.28,2.65,4.31,4.07,6.46,2.22-1.48,4.61-2.76,6.59-4.5,1.19-1.05,1.45-3.67,2.65-4.09,2.71-.95,5.99-1.77,8.53-1,1.18,.36,2.03,4.75,1.56,7.01-1.69,8.13-11.39,14.88-19.05,13.82-11.76-1.62-19.79-9-19.49-18.91,.35-12.02,.43-24.21,2.72-35.92,.87-4.49,6.86-9.27,11.64-11.44,8.86-4.01,22.69,4.07,24.64,13.6,.37,1.8-1.56,5.73-2.77,5.87-2.93,.35-6.59-.18-8.96-1.8-2.52-1.72-3.89-5.12-5.77-7.78-1.14,.03-2.29,.06-3.43,.08Z"/>
  <path class="cls-23" d="M652.64,448.97c1.38-22.05,2.67-42.82,3.99-63.9,9.3,0,18.13-.15,26.94,.15,1.4,.05,3.23,1.83,3.91,3.27,.34,.72-1.16,3.06-2.32,3.6-2.71,1.26-5.69,2.41-8.63,2.62-5.36,.39-9.28,2.07-10.1,7.89-.89,6.26,4.41,5.98,8.04,7.53,3.8,1.62,7.52,3.43,11.27,5.16-3.78,2.11-7.41,4.57-11.37,6.24-5.26,2.21-8.28,5.54-7.77,11.44,.52,6.01,5.26,6.18,9.67,7.26,3.9,.95,7.58,2.75,11.37,4.18-4.11,1.52-8.12,3.93-12.34,4.37-7.12,.73-14.36,.2-22.67,.2Z"/>
  <path class="cls-13" d="M807.52,448.77v-65.17c6.82-1.55,8.94,.35,9.35,6.37,.82,12.21,2.47,24.36,3.91,36.52,.82,6.96,4.4,10.93,11.84,11.75,2.18,.24,4.04,3.4,6.04,5.23-2.22,1.77-4.34,4.89-6.68,5.07-8.25,.63-16.58,.24-24.46,.24Z"/>
  <path class="cls-12" d="M242.89,269.29c-.72-4.64-1.43-9.27-2.35-15.18,8.53,.44,16.42,.85,25.23,1.31-2.61,26.82-11.34,50.78-24.83,73.54,.64-3.7,1.28-7.4,1.92-11.11,4.89-16.19,5.07-32.38,.03-48.57Z"/>
  <path class="cls-1" d="M647.95,264.7c-8.05-3.54-16.09-7.08-24.14-10.63-.43-1.51-.85-3.02-.75-2.66,9.38-7.3,18.08-14.08,26.79-20.87,0,0-.11,.12-.11,.12,1.63-.08,3.26-.16,4.89-.25,.65,.62,1.45,1.16,1.93,1.9,.66,1.02,1.09,2.2,1.61,3.31l-.04-.04c-.54,1.14-1.09,2.28-1.63,3.42-.85,1.07-1.66,2.16-2.54,3.2-5.61,6.65-7.44,13.55,.35,20.83-3.29,.86-4.83,1.26-6.36,1.66Z"/>
  <path class="cls-3" d="M658.17,235.64c-.53-1.11-.95-2.29-1.61-3.31-.48-.74-1.27-1.27-1.93-1.9,.63-1.09,1.26-2.18,1.88-3.27,0,0-.06,.11-.06,.11,6.66,0,13.31,0,19.89,0-6.69,3.96-13.26,7.85-19.84,11.75,.54-1.14,1.09-2.28,1.63-3.42,.2-.1,.44-.17,.6-.32,.09-.09,.06-.3,.09-.46-.21,.27-.43,.55-.64,.82Z"/>
  <path class="cls-22" d="M242.89,269.29c5.04,16.19,4.86,32.39-.03,48.57,.01-16.19,.02-32.38,.03-48.57Z"/>
  <path class="cls-20" d="M245.98,351.78c-11.14,1.05-22.28,2.07-33.41,3.16-3.97,.39-7.93,.92-11.9,1.39-2.38,0-4.76,0-7.13,0,0-.81,0-1.62,0-2.42,17.48-.71,34.96-1.42,52.44-2.13Z"/>
  <path class="cls-1" d="M667.56,378.58c3.24-3.18,4.58-9.93,14.34-5.46-5.37,3.5-9.04,5.89-12.71,8.29-.54-.94-1.09-1.88-1.63-2.82Z"/>
  <path class="cls-1" d="M658.17,235.64c.21-.27,.43-.55,.64-.82-.02,.16,0,.37-.09,.46-.16,.15-.39,.22-.6,.32,0,0,.04,.04,.04,.04Z"/>
</svg>